<?xml version="1.0" encoding="utf-8"?>
<!-- Generator: Adobe Illustrator 21.0.2, SVG Export Plug-In . SVG Version: 6.00 Build 0)  -->
<svg version="1.1" id="Layer_1" xmlns="http://www.w3.org/2000/svg" xmlns:xlink="http://www.w3.org/1999/xlink" x="0px" y="0px"
	 viewBox="0 0 30 30" style="enable-background:new 0 0 30 30;" xml:space="preserve">
<style type="text/css">
	.st0{fill:#1A1A1A;}
</style>
<path class="st0" d="M21.2,7.5c-2.7,0-5.1,1.5-6.4,3.7C13.5,9,11.2,7.5,8.4,7.5C4.3,7.5,1,10.9,1,14.9s3.3,7.4,7.4,7.4
	c2.7,0,5.1-1.5,6.4-3.7c1.3,2.2,3.7,3.7,6.4,3.7c4.1,0,7.4-3.3,7.4-7.4C28.6,10.9,25.3,7.5,21.2,7.5z M21.2,20.4
	c-3,0-5.4-2.4-5.4-5.4c0-3,2.4-5.4,5.4-5.4s5.4,2.4,5.4,5.4C26.6,17.9,24.2,20.4,21.2,20.4z"/>
</svg>
